<svg xmlns="http://www.w3.org/2000/svg" xmlns:xlink="http://www.w3.org/1999/xlink" width="439" zoomAndPan="magnify" viewBox="0 0 329.25 97.5" height="130" preserveAspectRatio="xMidYMid meet" version="1.0"><defs><g/></defs><g fill="#ff9a24" fill-opacity="1"><g transform="translate(9.022954, 46.362243)"><g><path d="M 11.296875 -14.71875 L 20.6875 -14.71875 L 20.6875 -8.15625 C 20.6875 -6.851562 20.476562 -5.671875 20.0625 -4.609375 C 19.65625 -3.554688 19.070312 -2.65625 18.3125 -1.90625 C 17.5625 -1.164062 16.648438 -0.597656 15.578125 -0.203125 C 14.503906 0.191406 13.289062 0.390625 11.9375 0.390625 C 10.613281 0.390625 9.40625 0.191406 8.3125 -0.203125 C 7.226562 -0.597656 6.304688 -1.164062 5.546875 -1.90625 C 4.796875 -2.65625 4.210938 -3.554688 3.796875 -4.609375 C 3.390625 -5.671875 3.1875 -6.851562 3.1875 -8.15625 L 3.1875 -20.5 C 3.1875 -21.769531 3.394531 -22.9375 3.8125 -24 C 4.238281 -25.0625 4.828125 -25.960938 5.578125 -26.703125 C 6.335938 -27.441406 7.257812 -28.015625 8.34375 -28.421875 C 9.4375 -28.835938 10.632812 -29.046875 11.9375 -29.046875 C 14.351562 -29.046875 16.328125 -28.4375 17.859375 -27.21875 C 19.398438 -26 20.410156 -24.222656 20.890625 -21.890625 L 17.234375 -21.890625 C 16.960938 -23.140625 16.363281 -24.113281 15.4375 -24.8125 C 14.507812 -25.519531 13.34375 -25.875 11.9375 -25.875 C 10.34375 -25.875 9.082031 -25.394531 8.15625 -24.4375 C 7.226562 -23.476562 6.765625 -22.164062 6.765625 -20.5 L 6.765625 -8.15625 C 6.765625 -6.488281 7.226562 -5.175781 8.15625 -4.21875 C 9.082031 -3.257812 10.34375 -2.78125 11.9375 -2.78125 C 13.53125 -2.78125 14.789062 -3.257812 15.71875 -4.21875 C 16.644531 -5.175781 17.109375 -6.488281 17.109375 -8.15625 L 17.109375 -11.546875 L 11.296875 -11.546875 Z M 11.296875 -14.71875 "/></g></g></g><g fill="#ff9a24" fill-opacity="1"><g transform="translate(32.898136, 46.362243)"><g><path d="M 11.9375 0.390625 C 9.207031 0.390625 7.066406 -0.347656 5.515625 -1.828125 C 3.960938 -3.316406 3.1875 -5.359375 3.1875 -7.953125 L 3.1875 -13.921875 C 3.1875 -16.523438 3.960938 -18.566406 5.515625 -20.046875 C 7.066406 -21.535156 9.207031 -22.28125 11.9375 -22.28125 C 14.664062 -22.28125 16.804688 -21.535156 18.359375 -20.046875 C 19.910156 -18.566406 20.6875 -16.523438 20.6875 -13.921875 L 20.6875 -9.90625 L 6.765625 -9.90625 L 6.765625 -8.15625 C 6.765625 -6.488281 7.222656 -5.175781 8.140625 -4.21875 C 9.054688 -3.257812 10.320312 -2.78125 11.9375 -2.78125 C 13.132812 -2.78125 14.171875 -2.96875 15.046875 -3.34375 C 15.921875 -3.71875 16.570312 -4.257812 17 -4.96875 L 20.578125 -4.96875 C 20.117188 -3.300781 19.113281 -1.988281 17.5625 -1.03125 C 16.007812 -0.0820312 14.132812 0.390625 11.9375 0.390625 Z M 17.109375 -12.890625 L 17.109375 -13.921875 C 17.109375 -15.566406 16.65625 -16.84375 15.75 -17.75 C 14.851562 -18.65625 13.582031 -19.109375 11.9375 -19.109375 C 10.289062 -19.109375 9.015625 -18.65625 8.109375 -17.75 C 7.210938 -16.84375 6.765625 -15.566406 6.765625 -13.921875 L 6.765625 -12.890625 Z M 17.109375 -12.890625 "/></g></g></g><g fill="#ff9a24" fill-opacity="1"><g transform="translate(56.773317, 46.362243)"><g><path d="M 2.390625 -21.890625 L 8.75 -21.890625 L 8.75 -28.65625 L 12.34375 -28.65625 L 12.34375 -21.890625 L 20.890625 -21.890625 L 20.890625 -18.625 L 12.34375 -18.625 L 12.34375 -5.65625 C 12.34375 -4.90625 12.570312 -4.316406 13.03125 -3.890625 C 13.5 -3.472656 14.128906 -3.265625 14.921875 -3.265625 L 20.5 -3.265625 L 20.5 0 L 14.921875 0 C 13.035156 0 11.535156 -0.515625 10.421875 -1.546875 C 9.304688 -2.585938 8.75 -3.957031 8.75 -5.65625 L 8.75 -18.625 L 2.390625 -18.625 Z M 2.390625 -21.890625 "/></g></g></g><g fill="#ff9a24" fill-opacity="1"><g transform="translate(80.655604, 46.362243)"><g><path d="M 11.9375 0.390625 C 10.53125 0.390625 9.234375 0.207031 8.046875 -0.15625 C 6.867188 -0.53125 5.851562 -1.066406 5 -1.765625 C 4.15625 -2.472656 3.488281 -3.316406 3 -4.296875 C 2.507812 -5.273438 2.238281 -6.375 2.1875 -7.59375 L 7.28125 -7.59375 C 7.332031 -6.457031 7.789062 -5.5625 8.65625 -4.90625 C 9.519531 -4.257812 10.65625 -3.9375 12.0625 -3.9375 C 13.519531 -3.9375 14.648438 -4.269531 15.453125 -4.9375 C 16.265625 -5.601562 16.671875 -6.488281 16.671875 -7.59375 C 16.671875 -8.582031 16.363281 -9.429688 15.75 -10.140625 C 15.144531 -10.859375 14.285156 -11.390625 13.171875 -11.734375 L 10.140625 -12.609375 C 5.210938 -13.960938 2.75 -16.800781 2.75 -21.125 C 2.75 -22.320312 2.96875 -23.410156 3.40625 -24.390625 C 3.84375 -25.378906 4.457031 -26.222656 5.25 -26.921875 C 6.050781 -27.628906 7.019531 -28.164062 8.15625 -28.53125 C 9.300781 -28.90625 10.585938 -29.09375 12.015625 -29.09375 C 14.722656 -29.09375 16.90625 -28.394531 18.5625 -27 C 20.21875 -25.601562 21.113281 -23.6875 21.25 -21.25 L 16.203125 -21.25 C 16.148438 -22.34375 15.722656 -23.191406 14.921875 -23.796875 C 14.128906 -24.410156 13.125 -24.71875 11.90625 -24.71875 C 10.601562 -24.71875 9.578125 -24.410156 8.828125 -23.796875 C 8.085938 -23.191406 7.71875 -22.382812 7.71875 -21.375 C 7.71875 -19.457031 8.875 -18.171875 11.1875 -17.515625 L 14.359375 -16.640625 C 16.753906 -15.972656 18.570312 -14.890625 19.8125 -13.390625 C 21.0625 -11.890625 21.6875 -10.039062 21.6875 -7.84375 C 21.6875 -6.59375 21.453125 -5.460938 20.984375 -4.453125 C 20.523438 -3.441406 19.867188 -2.578125 19.015625 -1.859375 C 18.171875 -1.148438 17.148438 -0.597656 15.953125 -0.203125 C 14.765625 0.191406 13.425781 0.390625 11.9375 0.390625 Z M 11.9375 0.390625 "/></g></g></g><g fill="#ff9a24" fill-opacity="1"><g transform="translate(104.530786, 46.362243)"><g><path d="M 2.984375 -21.890625 L 8 -21.890625 L 8 -8.203125 C 8 -5.359375 9.3125 -3.9375 11.9375 -3.9375 C 14.59375 -3.9375 15.921875 -5.359375 15.921875 -8.203125 L 15.921875 -21.890625 L 20.890625 -21.890625 L 20.890625 -8.203125 C 20.890625 -5.460938 20.097656 -3.34375 18.515625 -1.84375 C 16.941406 -0.351562 14.75 0.390625 11.9375 0.390625 C 9.101562 0.390625 6.898438 -0.363281 5.328125 -1.875 C 3.765625 -3.382812 2.984375 -5.492188 2.984375 -8.203125 Z M 2.984375 -21.890625 "/></g></g></g><g fill="#ff9a24" fill-opacity="1"><g transform="translate(128.405967, 46.362243)"><g><path d="M 1.953125 -21.890625 L 5.734375 -21.890625 L 5.734375 -18.703125 L 6.09375 -18.703125 C 6.164062 -19.816406 6.523438 -20.691406 7.171875 -21.328125 C 7.828125 -21.960938 8.703125 -22.28125 9.796875 -22.28125 C 10.828125 -22.28125 11.691406 -21.960938 12.390625 -21.328125 C 13.097656 -20.691406 13.582031 -19.816406 13.84375 -18.703125 L 14.015625 -18.703125 C 14.085938 -19.816406 14.445312 -20.691406 15.09375 -21.328125 C 15.75 -21.960938 16.617188 -22.28125 17.703125 -22.28125 C 19.035156 -22.28125 20.078125 -21.78125 20.828125 -20.78125 C 21.585938 -19.789062 21.96875 -18.4375 21.96875 -16.71875 L 21.96875 0 L 17.796875 0 L 17.796875 -16.3125 C 17.796875 -17.957031 17.15625 -18.78125 15.875 -18.78125 C 14.65625 -18.78125 14.046875 -17.929688 14.046875 -16.234375 L 14.046875 0 L 9.875 0 L 9.875 -16.3125 C 9.875 -17.664062 9.4375 -18.460938 8.5625 -18.703125 C 8.289062 -18.753906 8.085938 -18.78125 7.953125 -18.78125 C 7.828125 -18.78125 7.628906 -18.753906 7.359375 -18.703125 C 6.535156 -18.460938 6.125 -17.640625 6.125 -16.234375 L 6.125 0 L 1.953125 0 Z M 1.953125 -21.890625 "/></g></g></g><g fill="#ff9a24" fill-opacity="1"><g transform="translate(152.281149, 46.362243)"><g><path d="M 1.953125 -21.890625 L 5.734375 -21.890625 L 5.734375 -18.703125 L 6.09375 -18.703125 C 6.164062 -19.816406 6.523438 -20.691406 7.171875 -21.328125 C 7.828125 -21.960938 8.703125 -22.28125 9.796875 -22.28125 C 10.828125 -22.28125 11.691406 -21.960938 12.390625 -21.328125 C 13.097656 -20.691406 13.582031 -19.816406 13.84375 -18.703125 L 14.015625 -18.703125 C 14.085938 -19.816406 14.445312 -20.691406 15.09375 -21.328125 C 15.75 -21.960938 16.617188 -22.28125 17.703125 -22.28125 C 19.035156 -22.28125 20.078125 -21.78125 20.828125 -20.78125 C 21.585938 -19.789062 21.96875 -18.4375 21.96875 -16.71875 L 21.96875 0 L 17.796875 0 L 17.796875 -16.3125 C 17.796875 -17.957031 17.15625 -18.78125 15.875 -18.78125 C 14.65625 -18.78125 14.046875 -17.929688 14.046875 -16.234375 L 14.046875 0 L 9.875 0 L 9.875 -16.3125 C 9.875 -17.664062 9.4375 -18.460938 8.5625 -18.703125 C 8.289062 -18.753906 8.085938 -18.78125 7.953125 -18.78125 C 7.828125 -18.78125 7.628906 -18.753906 7.359375 -18.703125 C 6.535156 -18.460938 6.125 -17.640625 6.125 -16.234375 L 6.125 0 L 1.953125 0 Z M 1.953125 -21.890625 "/></g></g></g><g fill="#ff9a24" fill-opacity="1"><g transform="translate(176.156331, 46.362243)"><g><path d="M 11.9375 0.390625 C 10.507812 0.390625 9.203125 0.1875 8.015625 -0.21875 C 6.835938 -0.625 5.835938 -1.195312 5.015625 -1.9375 C 4.191406 -2.6875 3.550781 -3.59375 3.09375 -4.65625 C 2.644531 -5.71875 2.421875 -6.898438 2.421875 -8.203125 L 2.421875 -13.734375 C 2.421875 -15.035156 2.644531 -16.210938 3.09375 -17.265625 C 3.550781 -18.328125 4.191406 -19.226562 5.015625 -19.96875 C 5.835938 -20.71875 6.835938 -21.289062 8.015625 -21.6875 C 9.203125 -22.082031 10.507812 -22.28125 11.9375 -22.28125 C 13.375 -22.28125 14.675781 -22.070312 15.84375 -21.65625 C 17.007812 -21.25 18.003906 -20.675781 18.828125 -19.9375 C 19.648438 -19.195312 20.285156 -18.296875 20.734375 -17.234375 C 21.179688 -16.171875 21.40625 -14.988281 21.40625 -13.6875 L 21.40625 -9.703125 L 7.359375 -9.703125 L 7.359375 -8.28125 C 7.359375 -6.820312 7.765625 -5.679688 8.578125 -4.859375 C 9.390625 -4.035156 10.507812 -3.625 11.9375 -3.625 C 13.03125 -3.625 13.953125 -3.785156 14.703125 -4.109375 C 15.460938 -4.441406 16 -4.929688 16.3125 -5.578125 L 21.21875 -5.578125 C 20.976562 -4.671875 20.578125 -3.84375 20.015625 -3.09375 C 19.460938 -2.351562 18.78125 -1.722656 17.96875 -1.203125 C 17.15625 -0.691406 16.238281 -0.296875 15.21875 -0.015625 C 14.195312 0.253906 13.101562 0.390625 11.9375 0.390625 Z M 16.515625 -13.046875 L 16.515625 -13.6875 C 16.515625 -15.144531 16.113281 -16.28125 15.3125 -17.09375 C 14.519531 -17.90625 13.394531 -18.3125 11.9375 -18.3125 C 10.507812 -18.3125 9.390625 -17.90625 8.578125 -17.09375 C 7.765625 -16.28125 7.359375 -15.160156 7.359375 -13.734375 L 7.359375 -13.046875 Z M 16.515625 -13.046875 "/></g></g></g><g fill="#ff9a24" fill-opacity="1"><g transform="translate(200.031512, 46.362243)"><g><path d="M 3.78125 -21.890625 L 8.484375 -21.890625 L 8.484375 -18.109375 L 8.828125 -18.109375 C 9.097656 -19.429688 9.765625 -20.457031 10.828125 -21.1875 C 11.890625 -21.914062 13.242188 -22.28125 14.890625 -22.28125 C 17.242188 -22.28125 19.082031 -21.550781 20.40625 -20.09375 C 21.738281 -18.632812 22.40625 -16.617188 22.40625 -14.046875 L 22.40625 -12.453125 L 17.1875 -12.453125 L 17.1875 -13.609375 C 17.1875 -15.015625 16.800781 -16.109375 16.03125 -16.890625 C 15.269531 -17.671875 14.210938 -18.0625 12.859375 -18.0625 C 11.578125 -18.0625 10.570312 -17.664062 9.84375 -16.875 C 9.113281 -16.082031 8.75 -14.992188 8.75 -13.609375 L 8.75 0 L 3.78125 0 Z M 3.78125 -21.890625 "/></g></g></g><g fill="#ff9a24" fill-opacity="1"><g transform="translate(223.906694, 46.362243)"><g><path d="M 3.296875 -4.53125 L 11.140625 -4.53125 L 11.140625 -17.390625 L 4.296875 -17.390625 L 4.296875 -21.890625 L 15.921875 -21.890625 L 15.921875 -4.53125 L 22.25 -4.53125 L 22.25 0 L 3.296875 0 Z M 9.703125 -27.8125 C 9.703125 -28.582031 9.960938 -29.210938 10.484375 -29.703125 C 11.003906 -30.191406 11.6875 -30.4375 12.53125 -30.4375 L 13.578125 -30.4375 C 14.421875 -30.4375 15.097656 -30.191406 15.609375 -29.703125 C 16.128906 -29.210938 16.390625 -28.582031 16.390625 -27.8125 C 16.390625 -27.019531 16.125 -26.382812 15.59375 -25.90625 C 15.0625 -25.425781 14.375 -25.1875 13.53125 -25.1875 L 12.53125 -25.1875 C 11.6875 -25.1875 11.003906 -25.425781 10.484375 -25.90625 C 9.960938 -26.382812 9.703125 -27.019531 9.703125 -27.8125 Z M 9.703125 -27.8125 "/></g></g></g><g fill="#ff9a24" fill-opacity="1"><g transform="translate(247.781876, 46.362243)"><g><path d="M 3.140625 -21.890625 L 20.609375 -21.890625 L 20.609375 -17.1875 L 8.59375 -4.140625 C 8.914062 -4.160156 9.25 -4.203125 9.59375 -4.265625 C 9.882812 -4.285156 10.195312 -4.300781 10.53125 -4.3125 C 10.863281 -4.332031 11.1875 -4.34375 11.5 -4.34375 L 21.046875 -4.34375 L 21.046875 0 L 2.828125 0 L 2.828125 -4.703125 L 14.890625 -17.703125 C 14.535156 -17.679688 14.1875 -17.65625 13.84375 -17.625 C 13.550781 -17.601562 13.226562 -17.582031 12.875 -17.5625 C 12.519531 -17.550781 12.179688 -17.546875 11.859375 -17.546875 L 3.140625 -17.546875 Z M 3.140625 -21.890625 "/></g></g></g><g fill="#ff9a24" fill-opacity="1"><g transform="translate(271.657057, 46.362243)"><g><path d="M 11.9375 0.390625 C 10.507812 0.390625 9.203125 0.1875 8.015625 -0.21875 C 6.835938 -0.625 5.835938 -1.195312 5.015625 -1.9375 C 4.191406 -2.6875 3.550781 -3.59375 3.09375 -4.65625 C 2.644531 -5.71875 2.421875 -6.898438 2.421875 -8.203125 L 2.421875 -13.734375 C 2.421875 -15.035156 2.644531 -16.210938 3.09375 -17.265625 C 3.550781 -18.328125 4.191406 -19.226562 5.015625 -19.96875 C 5.835938 -20.71875 6.835938 -21.289062 8.015625 -21.6875 C 9.203125 -22.082031 10.507812 -22.28125 11.9375 -22.28125 C 13.375 -22.28125 14.675781 -22.070312 15.84375 -21.65625 C 17.007812 -21.25 18.003906 -20.675781 18.828125 -19.9375 C 19.648438 -19.195312 20.285156 -18.296875 20.734375 -17.234375 C 21.179688 -16.171875 21.40625 -14.988281 21.40625 -13.6875 L 21.40625 -9.703125 L 7.359375 -9.703125 L 7.359375 -8.28125 C 7.359375 -6.820312 7.765625 -5.679688 8.578125 -4.859375 C 9.390625 -4.035156 10.507812 -3.625 11.9375 -3.625 C 13.03125 -3.625 13.953125 -3.785156 14.703125 -4.109375 C 15.460938 -4.441406 16 -4.929688 16.3125 -5.578125 L 21.21875 -5.578125 C 20.976562 -4.671875 20.578125 -3.84375 20.015625 -3.09375 C 19.460938 -2.351562 18.78125 -1.722656 17.96875 -1.203125 C 17.15625 -0.691406 16.238281 -0.296875 15.21875 -0.015625 C 14.195312 0.253906 13.101562 0.390625 11.9375 0.390625 Z M 16.515625 -13.046875 L 16.515625 -13.6875 C 16.515625 -15.144531 16.113281 -16.28125 15.3125 -17.09375 C 14.519531 -17.90625 13.394531 -18.3125 11.9375 -18.3125 C 10.507812 -18.3125 9.390625 -17.90625 8.578125 -17.09375 C 7.765625 -16.28125 7.359375 -15.160156 7.359375 -13.734375 L 7.359375 -13.046875 Z M 16.515625 -13.046875 "/></g></g></g><g fill="#ff9a24" fill-opacity="1"><g transform="translate(295.532239, 46.362243)"><g><path d="M 2.421875 -13.734375 C 2.421875 -15.054688 2.597656 -16.238281 2.953125 -17.28125 C 3.316406 -18.332031 3.828125 -19.226562 4.484375 -19.96875 C 5.148438 -20.71875 5.945312 -21.289062 6.875 -21.6875 C 7.8125 -22.082031 8.835938 -22.28125 9.953125 -22.28125 C 11.546875 -22.28125 12.859375 -21.910156 13.890625 -21.171875 C 14.921875 -20.429688 15.554688 -19.410156 15.796875 -18.109375 L 16.203125 -18.109375 C 16.171875 -18.554688 16.144531 -19.003906 16.125 -19.453125 C 16.0625 -19.859375 16.023438 -20.28125 16.015625 -20.71875 C 16.003906 -21.15625 16 -21.546875 16 -21.890625 L 16 -29.046875 L 20.96875 -29.046875 L 20.96875 0 L 16.203125 0 L 16.203125 -3.828125 L 15.796875 -3.828125 C 15.554688 -2.492188 14.921875 -1.457031 13.890625 -0.71875 C 12.859375 0.0195312 11.546875 0.390625 9.953125 0.390625 C 8.835938 0.390625 7.8125 0.191406 6.875 -0.203125 C 5.945312 -0.597656 5.148438 -1.171875 4.484375 -1.921875 C 3.828125 -2.679688 3.316406 -3.597656 2.953125 -4.671875 C 2.597656 -5.742188 2.421875 -6.945312 2.421875 -8.28125 Z M 11.734375 -3.9375 C 13.035156 -3.9375 14.070312 -4.332031 14.84375 -5.125 C 15.613281 -5.925781 16 -6.976562 16 -8.28125 L 16 -13.609375 C 16 -14.929688 15.609375 -15.988281 14.828125 -16.78125 C 14.046875 -17.582031 13.015625 -17.984375 11.734375 -17.984375 C 10.378906 -17.984375 9.316406 -17.59375 8.546875 -16.8125 C 7.785156 -16.03125 7.40625 -14.960938 7.40625 -13.609375 L 7.40625 -8.390625 C 7.40625 -7.046875 7.785156 -5.96875 8.546875 -5.15625 C 9.316406 -4.34375 10.378906 -3.9375 11.734375 -3.9375 Z M 11.734375 -3.9375 "/></g></g></g><g fill="#000000" fill-opacity="1"><g transform="translate(11.657879, 81.482116)"><g><path d="M 14.65625 0 L 12.28125 -6.078125 L 4.609375 -6.078125 L 2.25 0 L 0 0 L 7.5 -19.25 L 9.515625 -19.25 L 16.953125 0 Z M 11.625 -8.0625 L 9.375 -14.109375 C 9.320312 -14.265625 9.234375 -14.519531 9.109375 -14.875 C 8.992188 -15.238281 8.875 -15.613281 8.75 -16 C 8.632812 -16.382812 8.535156 -16.695312 8.453125 -16.9375 C 8.367188 -16.570312 8.273438 -16.210938 8.171875 -15.859375 C 8.078125 -15.503906 7.976562 -15.175781 7.875 -14.875 C 7.78125 -14.570312 7.703125 -14.316406 7.640625 -14.109375 L 5.34375 -8.0625 Z M 11.625 -8.0625 "/></g></g><g transform="translate(28.643526, 81.482116)"><g><path d="M 2.625 0 L 2.625 -19.171875 L 4.859375 -19.171875 L 4.859375 0 Z M 2.625 0 "/></g></g><g transform="translate(36.146067, 81.482116)"><g/></g><g transform="translate(43.123955, 81.482116)"><g><path d="M 8.515625 0 L 6.265625 0 L 6.265625 -17.203125 L 0.234375 -17.203125 L 0.234375 -19.171875 L 14.515625 -19.171875 L 14.515625 -17.203125 L 8.515625 -17.203125 Z M 8.515625 0 "/></g></g><g transform="translate(57.919175, 81.482116)"><g><path d="M 7.828125 -14.640625 C 9.054688 -14.640625 10.101562 -14.367188 10.96875 -13.828125 C 11.84375 -13.285156 12.507812 -12.523438 12.96875 -11.546875 C 13.4375 -10.566406 13.671875 -9.425781 13.671875 -8.125 L 13.671875 -6.78125 L 3.75 -6.78125 C 3.78125 -5.09375 4.203125 -3.804688 5.015625 -2.921875 C 5.828125 -2.035156 6.972656 -1.59375 8.453125 -1.59375 C 9.359375 -1.59375 10.160156 -1.675781 10.859375 -1.84375 C 11.554688 -2.007812 12.28125 -2.253906 13.03125 -2.578125 L 13.03125 -0.671875 C 12.3125 -0.347656 11.59375 -0.113281 10.875 0.03125 C 10.164062 0.1875 9.328125 0.265625 8.359375 0.265625 C 6.972656 0.265625 5.765625 -0.015625 4.734375 -0.578125 C 3.710938 -1.140625 2.914062 -1.96875 2.34375 -3.0625 C 1.78125 -4.15625 1.5 -5.492188 1.5 -7.078125 C 1.5 -8.628906 1.757812 -9.96875 2.28125 -11.09375 C 2.800781 -12.226562 3.535156 -13.101562 4.484375 -13.71875 C 5.429688 -14.332031 6.546875 -14.640625 7.828125 -14.640625 Z M 7.796875 -12.859375 C 6.640625 -12.859375 5.710938 -12.476562 5.015625 -11.71875 C 4.328125 -10.957031 3.921875 -9.894531 3.796875 -8.53125 L 11.390625 -8.53125 C 11.390625 -9.382812 11.257812 -10.132812 11 -10.78125 C 10.738281 -11.4375 10.34375 -11.945312 9.8125 -12.3125 C 9.289062 -12.675781 8.617188 -12.859375 7.796875 -12.859375 Z M 7.796875 -12.859375 "/></g></g><g transform="translate(73.002955, 81.482116)"><g><path d="M 5.71875 -7.359375 L 0.75 -14.375 L 3.234375 -14.375 L 7.03125 -8.84375 L 10.8125 -14.375 L 13.265625 -14.375 L 8.296875 -7.359375 L 13.546875 0 L 11.0625 0 L 7.03125 -5.859375 L 2.984375 0 L 0.515625 0 Z M 5.71875 -7.359375 "/></g></g><g transform="translate(87.06366, 81.482116)"><g><path d="M 6.9375 -1.515625 C 7.289062 -1.515625 7.65625 -1.546875 8.03125 -1.609375 C 8.414062 -1.671875 8.722656 -1.75 8.953125 -1.84375 L 8.953125 -0.140625 C 8.703125 -0.0234375 8.347656 0.0664062 7.890625 0.140625 C 7.441406 0.222656 7.003906 0.265625 6.578125 0.265625 C 5.816406 0.265625 5.125 0.132812 4.5 -0.125 C 3.882812 -0.394531 3.390625 -0.847656 3.015625 -1.484375 C 2.648438 -2.128906 2.46875 -3.015625 2.46875 -4.140625 L 2.46875 -12.671875 L 0.421875 -12.671875 L 0.421875 -13.734375 L 2.484375 -14.578125 L 3.34375 -17.703125 L 4.65625 -17.703125 L 4.65625 -14.375 L 8.859375 -14.375 L 8.859375 -12.671875 L 4.65625 -12.671875 L 4.65625 -4.203125 C 4.65625 -3.304688 4.863281 -2.632812 5.28125 -2.1875 C 5.695312 -1.738281 6.25 -1.515625 6.9375 -1.515625 Z M 6.9375 -1.515625 "/></g></g><g transform="translate(96.638581, 81.482116)"><g/></g><g transform="translate(103.616469, 81.482116)"><g><path d="M 13.4375 -5.109375 C 13.4375 -3.960938 13.15625 -2.988281 12.59375 -2.1875 C 12.03125 -1.394531 11.238281 -0.785156 10.21875 -0.359375 C 9.207031 0.0546875 8.019531 0.265625 6.65625 0.265625 C 5.925781 0.265625 5.238281 0.226562 4.59375 0.15625 C 3.945312 0.0820312 3.351562 -0.015625 2.8125 -0.140625 C 2.269531 -0.273438 1.789062 -0.4375 1.375 -0.625 L 1.375 -2.765625 C 2.03125 -2.492188 2.828125 -2.242188 3.765625 -2.015625 C 4.710938 -1.785156 5.703125 -1.671875 6.734375 -1.671875 C 7.703125 -1.671875 8.515625 -1.796875 9.171875 -2.046875 C 9.835938 -2.304688 10.34375 -2.675781 10.6875 -3.15625 C 11.039062 -3.644531 11.21875 -4.234375 11.21875 -4.921875 C 11.21875 -5.578125 11.070312 -6.125 10.78125 -6.5625 C 10.488281 -7 10.007812 -7.398438 9.34375 -7.765625 C 8.675781 -8.128906 7.765625 -8.519531 6.609375 -8.9375 C 5.796875 -9.21875 5.078125 -9.53125 4.453125 -9.875 C 3.835938 -10.226562 3.316406 -10.625 2.890625 -11.0625 C 2.472656 -11.5 2.15625 -12.003906 1.9375 -12.578125 C 1.726562 -13.148438 1.625 -13.8125 1.625 -14.5625 C 1.625 -15.582031 1.882812 -16.457031 2.40625 -17.1875 C 2.925781 -17.914062 3.644531 -18.472656 4.5625 -18.859375 C 5.488281 -19.253906 6.550781 -19.453125 7.75 -19.453125 C 8.769531 -19.453125 9.710938 -19.351562 10.578125 -19.15625 C 11.453125 -18.96875 12.253906 -18.710938 12.984375 -18.390625 L 12.28125 -16.46875 C 11.59375 -16.757812 10.863281 -17 10.09375 -17.1875 C 9.320312 -17.382812 8.523438 -17.484375 7.703125 -17.484375 C 6.878906 -17.484375 6.1875 -17.363281 5.625 -17.125 C 5.0625 -16.882812 4.628906 -16.546875 4.328125 -16.109375 C 4.023438 -15.671875 3.875 -15.148438 3.875 -14.546875 C 3.875 -13.867188 4.015625 -13.304688 4.296875 -12.859375 C 4.585938 -12.421875 5.046875 -12.023438 5.671875 -11.671875 C 6.296875 -11.328125 7.125 -10.96875 8.15625 -10.59375 C 9.28125 -10.1875 10.234375 -9.753906 11.015625 -9.296875 C 11.804688 -8.835938 12.40625 -8.273438 12.8125 -7.609375 C 13.226562 -6.953125 13.4375 -6.117188 13.4375 -5.109375 Z M 13.4375 -5.109375 "/></g></g><g transform="translate(118.346107, 81.482116)"><g><path d="M 14.171875 -14.375 L 14.171875 0 L 12.375 0 L 12.0625 -2.015625 L 11.953125 -2.015625 C 11.648438 -1.515625 11.257812 -1.09375 10.78125 -0.75 C 10.3125 -0.414062 9.78125 -0.164062 9.1875 0 C 8.601562 0.175781 7.976562 0.265625 7.3125 0.265625 C 6.175781 0.265625 5.222656 0.0820312 4.453125 -0.28125 C 3.691406 -0.65625 3.113281 -1.222656 2.71875 -1.984375 C 2.332031 -2.753906 2.140625 -3.742188 2.140625 -4.953125 L 2.140625 -14.375 L 4.34375 -14.375 L 4.34375 -5.109375 C 4.34375 -3.910156 4.613281 -3.015625 5.15625 -2.421875 C 5.695312 -1.835938 6.523438 -1.546875 7.640625 -1.546875 C 8.703125 -1.546875 9.550781 -1.742188 10.1875 -2.140625 C 10.820312 -2.546875 11.273438 -3.140625 11.546875 -3.921875 C 11.828125 -4.710938 11.96875 -5.675781 11.96875 -6.8125 L 11.96875 -14.375 Z M 14.171875 -14.375 "/></g></g><g transform="translate(134.820218, 81.482116)"><g><path d="M 17.90625 -14.640625 C 19.488281 -14.640625 20.679688 -14.222656 21.484375 -13.390625 C 22.285156 -12.566406 22.6875 -11.242188 22.6875 -9.421875 L 22.6875 0 L 20.53125 0 L 20.53125 -9.3125 C 20.53125 -10.476562 20.28125 -11.347656 19.78125 -11.921875 C 19.28125 -12.503906 18.535156 -12.796875 17.546875 -12.796875 C 16.160156 -12.796875 15.148438 -12.394531 14.515625 -11.59375 C 13.890625 -10.789062 13.578125 -9.609375 13.578125 -8.046875 L 13.578125 0 L 11.40625 0 L 11.40625 -9.3125 C 11.40625 -10.09375 11.289062 -10.738281 11.0625 -11.25 C 10.84375 -11.769531 10.515625 -12.15625 10.078125 -12.40625 C 9.640625 -12.664062 9.082031 -12.796875 8.40625 -12.796875 C 7.457031 -12.796875 6.691406 -12.597656 6.109375 -12.203125 C 5.535156 -11.816406 5.117188 -11.234375 4.859375 -10.453125 C 4.597656 -9.679688 4.46875 -8.734375 4.46875 -7.609375 L 4.46875 0 L 2.296875 0 L 2.296875 -14.375 L 4.046875 -14.375 L 4.375 -12.34375 L 4.5 -12.34375 C 4.789062 -12.84375 5.15625 -13.257812 5.59375 -13.59375 C 6.03125 -13.9375 6.519531 -14.195312 7.0625 -14.375 C 7.601562 -14.550781 8.175781 -14.640625 8.78125 -14.640625 C 9.875 -14.640625 10.789062 -14.4375 11.53125 -14.03125 C 12.269531 -13.625 12.804688 -13.003906 13.140625 -12.171875 L 13.265625 -12.171875 C 13.734375 -13.003906 14.378906 -13.625 15.203125 -14.03125 C 16.023438 -14.4375 16.925781 -14.640625 17.90625 -14.640625 Z M 17.90625 -14.640625 "/></g></g><g transform="translate(159.688779, 81.482116)"><g><path d="M 17.90625 -14.640625 C 19.488281 -14.640625 20.679688 -14.222656 21.484375 -13.390625 C 22.285156 -12.566406 22.6875 -11.242188 22.6875 -9.421875 L 22.6875 0 L 20.53125 0 L 20.53125 -9.3125 C 20.53125 -10.476562 20.28125 -11.347656 19.78125 -11.921875 C 19.28125 -12.503906 18.535156 -12.796875 17.546875 -12.796875 C 16.160156 -12.796875 15.148438 -12.394531 14.515625 -11.59375 C 13.890625 -10.789062 13.578125 -9.609375 13.578125 -8.046875 L 13.578125 0 L 11.40625 0 L 11.40625 -9.3125 C 11.40625 -10.09375 11.289062 -10.738281 11.0625 -11.25 C 10.84375 -11.769531 10.515625 -12.15625 10.078125 -12.40625 C 9.640625 -12.664062 9.082031 -12.796875 8.40625 -12.796875 C 7.457031 -12.796875 6.691406 -12.597656 6.109375 -12.203125 C 5.535156 -11.816406 5.117188 -11.234375 4.859375 -10.453125 C 4.597656 -9.679688 4.46875 -8.734375 4.46875 -7.609375 L 4.46875 0 L 2.296875 0 L 2.296875 -14.375 L 4.046875 -14.375 L 4.375 -12.34375 L 4.5 -12.34375 C 4.789062 -12.84375 5.15625 -13.257812 5.59375 -13.59375 C 6.03125 -13.9375 6.519531 -14.195312 7.0625 -14.375 C 7.601562 -14.550781 8.175781 -14.640625 8.78125 -14.640625 C 9.875 -14.640625 10.789062 -14.4375 11.53125 -14.03125 C 12.269531 -13.625 12.804688 -13.003906 13.140625 -12.171875 L 13.265625 -12.171875 C 13.734375 -13.003906 14.378906 -13.625 15.203125 -14.03125 C 16.023438 -14.4375 16.925781 -14.640625 17.90625 -14.640625 Z M 17.90625 -14.640625 "/></g></g><g transform="translate(184.557341, 81.482116)"><g><path d="M 7.671875 -14.609375 C 9.390625 -14.609375 10.660156 -14.222656 11.484375 -13.453125 C 12.316406 -12.679688 12.734375 -11.453125 12.734375 -9.765625 L 12.734375 0 L 11.140625 0 L 10.734375 -2.125 L 10.625 -2.125 C 10.21875 -1.601562 9.796875 -1.164062 9.359375 -0.8125 C 8.921875 -0.457031 8.414062 -0.1875 7.84375 0 C 7.269531 0.175781 6.570312 0.265625 5.75 0.265625 C 4.875 0.265625 4.097656 0.113281 3.421875 -0.1875 C 2.742188 -0.5 2.207031 -0.960938 1.8125 -1.578125 C 1.425781 -2.203125 1.234375 -2.992188 1.234375 -3.953125 C 1.234375 -5.378906 1.800781 -6.476562 2.9375 -7.25 C 4.070312 -8.019531 5.800781 -8.441406 8.125 -8.515625 L 10.609375 -8.609375 L 10.609375 -9.5 C 10.609375 -10.738281 10.34375 -11.609375 9.8125 -12.109375 C 9.28125 -12.609375 8.523438 -12.859375 7.546875 -12.859375 C 6.796875 -12.859375 6.078125 -12.75 5.390625 -12.53125 C 4.710938 -12.3125 4.070312 -12.050781 3.46875 -11.75 L 2.796875 -13.40625 C 3.441406 -13.738281 4.179688 -14.019531 5.015625 -14.25 C 5.859375 -14.488281 6.742188 -14.609375 7.671875 -14.609375 Z M 10.578125 -7.078125 L 8.390625 -6.984375 C 6.597656 -6.921875 5.332031 -6.628906 4.59375 -6.109375 C 3.863281 -5.597656 3.5 -4.867188 3.5 -3.921875 C 3.5 -3.097656 3.75 -2.488281 4.25 -2.09375 C 4.75 -1.707031 5.410156 -1.515625 6.234375 -1.515625 C 7.503906 -1.515625 8.546875 -1.867188 9.359375 -2.578125 C 10.171875 -3.285156 10.578125 -4.34375 10.578125 -5.75 Z M 10.578125 -7.078125 "/></g></g><g transform="translate(199.483724, 81.482116)"><g><path d="M 8.828125 -14.640625 C 9.117188 -14.640625 9.421875 -14.625 9.734375 -14.59375 C 10.046875 -14.5625 10.328125 -14.519531 10.578125 -14.46875 L 10.296875 -12.453125 C 10.054688 -12.503906 9.789062 -12.546875 9.5 -12.578125 C 9.21875 -12.617188 8.945312 -12.640625 8.6875 -12.640625 C 8.113281 -12.640625 7.570312 -12.523438 7.0625 -12.296875 C 6.550781 -12.066406 6.101562 -11.734375 5.71875 -11.296875 C 5.332031 -10.867188 5.03125 -10.347656 4.8125 -9.734375 C 4.59375 -9.128906 4.484375 -8.457031 4.484375 -7.71875 L 4.484375 0 L 2.296875 0 L 2.296875 -14.375 L 4.109375 -14.375 L 4.34375 -11.71875 L 4.4375 -11.71875 C 4.726562 -12.257812 5.082031 -12.75 5.5 -13.1875 C 5.925781 -13.625 6.414062 -13.972656 6.96875 -14.234375 C 7.519531 -14.503906 8.140625 -14.640625 8.828125 -14.640625 Z M 8.828125 -14.640625 "/></g></g><g transform="translate(210.462093, 81.482116)"><g><path d="M 4.46875 -14.375 L 4.46875 0 L 2.296875 0 L 2.296875 -14.375 Z M 3.40625 -19.75 C 3.769531 -19.75 4.078125 -19.632812 4.328125 -19.40625 C 4.585938 -19.175781 4.71875 -18.816406 4.71875 -18.328125 C 4.71875 -17.835938 4.585938 -17.472656 4.328125 -17.234375 C 4.078125 -17.003906 3.769531 -16.890625 3.40625 -16.890625 C 3.03125 -16.890625 2.71875 -17.003906 2.46875 -17.234375 C 2.21875 -17.472656 2.09375 -17.835938 2.09375 -18.328125 C 2.09375 -18.816406 2.21875 -19.175781 2.46875 -19.40625 C 2.71875 -19.632812 3.03125 -19.75 3.40625 -19.75 Z M 3.40625 -19.75 "/></g></g><g transform="translate(217.243235, 81.482116)"><g><path d="M 11.53125 0 L 1.046875 0 L 1.046875 -1.4375 L 8.9375 -12.671875 L 1.546875 -12.671875 L 1.546875 -14.375 L 11.359375 -14.375 L 11.359375 -12.765625 L 3.578125 -1.6875 L 11.53125 -1.6875 Z M 11.53125 0 "/></g></g><g transform="translate(229.834912, 81.482116)"><g><path d="M 7.828125 -14.640625 C 9.054688 -14.640625 10.101562 -14.367188 10.96875 -13.828125 C 11.84375 -13.285156 12.507812 -12.523438 12.96875 -11.546875 C 13.4375 -10.566406 13.671875 -9.425781 13.671875 -8.125 L 13.671875 -6.78125 L 3.75 -6.78125 C 3.78125 -5.09375 4.203125 -3.804688 5.015625 -2.921875 C 5.828125 -2.035156 6.972656 -1.59375 8.453125 -1.59375 C 9.359375 -1.59375 10.160156 -1.675781 10.859375 -1.84375 C 11.554688 -2.007812 12.28125 -2.253906 13.03125 -2.578125 L 13.03125 -0.671875 C 12.3125 -0.347656 11.59375 -0.113281 10.875 0.03125 C 10.164062 0.1875 9.328125 0.265625 8.359375 0.265625 C 6.972656 0.265625 5.765625 -0.015625 4.734375 -0.578125 C 3.710938 -1.140625 2.914062 -1.96875 2.34375 -3.0625 C 1.78125 -4.15625 1.5 -5.492188 1.5 -7.078125 C 1.5 -8.628906 1.757812 -9.96875 2.28125 -11.09375 C 2.800781 -12.226562 3.535156 -13.101562 4.484375 -13.71875 C 5.429688 -14.332031 6.546875 -14.640625 7.828125 -14.640625 Z M 7.796875 -12.859375 C 6.640625 -12.859375 5.710938 -12.476562 5.015625 -11.71875 C 4.328125 -10.957031 3.921875 -9.894531 3.796875 -8.53125 L 11.390625 -8.53125 C 11.390625 -9.382812 11.257812 -10.132812 11 -10.78125 C 10.738281 -11.4375 10.34375 -11.945312 9.8125 -12.3125 C 9.289062 -12.675781 8.617188 -12.859375 7.796875 -12.859375 Z M 7.796875 -12.859375 "/></g></g><g transform="translate(244.918692, 81.482116)"><g><path d="M 8.828125 -14.640625 C 9.117188 -14.640625 9.421875 -14.625 9.734375 -14.59375 C 10.046875 -14.5625 10.328125 -14.519531 10.578125 -14.46875 L 10.296875 -12.453125 C 10.054688 -12.503906 9.789062 -12.546875 9.5 -12.578125 C 9.21875 -12.617188 8.945312 -12.640625 8.6875 -12.640625 C 8.113281 -12.640625 7.570312 -12.523438 7.0625 -12.296875 C 6.550781 -12.066406 6.101562 -11.734375 5.71875 -11.296875 C 5.332031 -10.867188 5.03125 -10.347656 4.8125 -9.734375 C 4.59375 -9.128906 4.484375 -8.457031 4.484375 -7.71875 L 4.484375 0 L 2.296875 0 L 2.296875 -14.375 L 4.109375 -14.375 L 4.34375 -11.71875 L 4.4375 -11.71875 C 4.726562 -12.257812 5.082031 -12.75 5.5 -13.1875 C 5.925781 -13.625 6.414062 -13.972656 6.96875 -14.234375 C 7.519531 -14.503906 8.140625 -14.640625 8.828125 -14.640625 Z M 8.828125 -14.640625 "/></g></g><g transform="translate(255.89706, 81.482116)"><g/></g><g transform="translate(262.874948, 81.482116)"><g><path d="M 8.515625 0 L 6.265625 0 L 6.265625 -17.203125 L 0.234375 -17.203125 L 0.234375 -19.171875 L 14.515625 -19.171875 L 14.515625 -17.203125 L 8.515625 -17.203125 Z M 8.515625 0 "/></g></g><g transform="translate(277.670168, 81.482116)"><g><path d="M 14.6875 -7.21875 C 14.6875 -6.03125 14.53125 -4.972656 14.21875 -4.046875 C 13.914062 -3.117188 13.476562 -2.335938 12.90625 -1.703125 C 12.332031 -1.066406 11.632812 -0.578125 10.8125 -0.234375 C 10 0.0976562 9.078125 0.265625 8.046875 0.265625 C 7.078125 0.265625 6.191406 0.0976562 5.390625 -0.234375 C 4.597656 -0.578125 3.910156 -1.066406 3.328125 -1.703125 C 2.742188 -2.335938 2.289062 -3.117188 1.96875 -4.046875 C 1.65625 -4.972656 1.5 -6.03125 1.5 -7.21875 C 1.5 -8.789062 1.765625 -10.128906 2.296875 -11.234375 C 2.828125 -12.335938 3.585938 -13.179688 4.578125 -13.765625 C 5.578125 -14.347656 6.757812 -14.640625 8.125 -14.640625 C 9.4375 -14.640625 10.582031 -14.34375 11.5625 -13.75 C 12.550781 -13.164062 13.316406 -12.320312 13.859375 -11.21875 C 14.410156 -10.113281 14.6875 -8.78125 14.6875 -7.21875 Z M 3.75 -7.21875 C 3.75 -6.0625 3.898438 -5.054688 4.203125 -4.203125 C 4.515625 -3.359375 4.988281 -2.703125 5.625 -2.234375 C 6.257812 -1.773438 7.082031 -1.546875 8.09375 -1.546875 C 9.09375 -1.546875 9.910156 -1.773438 10.546875 -2.234375 C 11.191406 -2.703125 11.664062 -3.359375 11.96875 -4.203125 C 12.28125 -5.054688 12.4375 -6.0625 12.4375 -7.21875 C 12.4375 -8.363281 12.28125 -9.351562 11.96875 -10.1875 C 11.664062 -11.019531 11.191406 -11.660156 10.546875 -12.109375 C 9.910156 -12.566406 9.085938 -12.796875 8.078125 -12.796875 C 6.585938 -12.796875 5.492188 -12.300781 4.796875 -11.3125 C 4.097656 -10.332031 3.75 -8.96875 3.75 -7.21875 Z M 3.75 -7.21875 "/></g></g><g transform="translate(293.829486, 81.482116)"><g><path d="M 14.6875 -7.21875 C 14.6875 -6.03125 14.53125 -4.972656 14.21875 -4.046875 C 13.914062 -3.117188 13.476562 -2.335938 12.90625 -1.703125 C 12.332031 -1.066406 11.632812 -0.578125 10.8125 -0.234375 C 10 0.0976562 9.078125 0.265625 8.046875 0.265625 C 7.078125 0.265625 6.191406 0.0976562 5.390625 -0.234375 C 4.597656 -0.578125 3.910156 -1.066406 3.328125 -1.703125 C 2.742188 -2.335938 2.289062 -3.117188 1.96875 -4.046875 C 1.65625 -4.972656 1.5 -6.03125 1.5 -7.21875 C 1.5 -8.789062 1.765625 -10.128906 2.296875 -11.234375 C 2.828125 -12.335938 3.585938 -13.179688 4.578125 -13.765625 C 5.578125 -14.347656 6.757812 -14.640625 8.125 -14.640625 C 9.4375 -14.640625 10.582031 -14.34375 11.5625 -13.75 C 12.550781 -13.164062 13.316406 -12.320312 13.859375 -11.21875 C 14.410156 -10.113281 14.6875 -8.78125 14.6875 -7.21875 Z M 3.75 -7.21875 C 3.75 -6.0625 3.898438 -5.054688 4.203125 -4.203125 C 4.515625 -3.359375 4.988281 -2.703125 5.625 -2.234375 C 6.257812 -1.773438 7.082031 -1.546875 8.09375 -1.546875 C 9.09375 -1.546875 9.910156 -1.773438 10.546875 -2.234375 C 11.191406 -2.703125 11.664062 -3.359375 11.96875 -4.203125 C 12.28125 -5.054688 12.4375 -6.0625 12.4375 -7.21875 C 12.4375 -8.363281 12.28125 -9.351562 11.96875 -10.1875 C 11.664062 -11.019531 11.191406 -11.660156 10.546875 -12.109375 C 9.910156 -12.566406 9.085938 -12.796875 8.078125 -12.796875 C 6.585938 -12.796875 5.492188 -12.300781 4.796875 -11.3125 C 4.097656 -10.332031 3.75 -8.96875 3.75 -7.21875 Z M 3.75 -7.21875 "/></g></g><g transform="translate(309.988805, 81.482116)"><g><path d="M 4.484375 0 L 2.296875 0 L 2.296875 -20.40625 L 4.484375 -20.40625 Z M 4.484375 0 "/></g></g></g></svg>