<svg xmlns="http://www.w3.org/2000/svg" xmlns:xlink="http://www.w3.org/1999/xlink" width="384" zoomAndPan="magnify" viewBox="0 0 288 287.999989" height="384" preserveAspectRatio="xMidYMid meet" version="1.0"><defs><clipPath id="03e256e88a"><path d="M 219.621094 149.253906 C 219.3125 153.742188 218.617188 158.128906 217.5625 162.367188 L 282.675781 183.527344 L 279.425781 193.523438 L 214.3125 172.367188 C 212.644531 176.5 210.617188 180.460938 208.277344 184.199219 L 263.671875 224.445312 L 257.492188 232.949219 L 202.089844 192.695312 C 199.242188 196.09375 196.097656 199.234375 192.699219 202.085938 L 232.953125 257.488281 L 224.453125 263.664062 L 184.203125 208.269531 C 180.464844 210.613281 176.511719 212.636719 172.371094 214.308594 L 193.53125 279.421875 L 183.53125 282.667969 L 162.375 217.554688 C 158.128906 218.613281 153.75 219.3125 149.257812 219.617188 L 149.257812 288.09375 L 138.746094 288.09375 L 138.746094 219.621094 C 134.257812 219.3125 129.871094 218.617188 125.632812 217.5625 L 104.472656 282.675781 L 94.476562 279.425781 L 115.628906 214.3125 C 111.492188 212.644531 107.535156 210.617188 103.796875 208.277344 L 63.546875 263.671875 L 55.046875 257.492188 L 95.300781 202.089844 C 91.902344 199.242188 88.757812 196.097656 85.910156 192.699219 L 30.507812 232.953125 L 24.328125 224.453125 L 79.722656 184.203125 C 77.382812 180.464844 75.355469 176.511719 73.6875 172.371094 L 8.578125 193.53125 L 5.332031 183.53125 L 70.445312 162.375 C 69.386719 158.128906 68.6875 153.75 68.382812 149.257812 L -0.0976562 149.257812 L -0.0976562 138.746094 L 68.378906 138.746094 C 68.6875 134.257812 69.382812 129.871094 70.4375 125.632812 L 5.324219 104.46875 L 8.574219 94.46875 L 73.6875 115.628906 C 75.355469 111.492188 77.382812 107.535156 79.722656 103.796875 L 24.328125 63.546875 L 30.507812 55.046875 L 85.910156 95.300781 C 88.757812 91.902344 91.902344 88.757812 95.300781 85.910156 L 55.046875 30.507812 L 63.546875 24.328125 L 103.796875 79.722656 C 107.535156 77.382812 111.488281 75.355469 115.628906 73.6875 L 94.46875 8.574219 L 104.46875 5.324219 L 125.625 70.4375 C 129.871094 69.382812 134.25 68.679688 138.742188 68.378906 L 138.742188 -0.0976562 L 149.253906 -0.0976562 L 149.253906 68.378906 C 153.742188 68.6875 158.128906 69.382812 162.367188 70.4375 L 183.527344 5.324219 L 193.523438 8.574219 L 172.367188 73.6875 C 176.5 75.355469 180.460938 77.382812 184.199219 79.722656 L 224.445312 24.328125 L 232.949219 30.507812 L 192.695312 85.910156 C 196.09375 88.757812 199.234375 91.902344 202.085938 95.300781 L 257.488281 55.046875 L 263.664062 63.546875 L 208.269531 103.796875 C 210.613281 107.535156 212.636719 111.488281 214.308594 115.628906 L 279.421875 94.46875 L 282.667969 104.46875 L 217.554688 125.625 C 218.613281 129.871094 219.3125 134.25 219.617188 138.742188 L 288.09375 138.742188 L 288.09375 149.253906 Z M 219.621094 149.253906 " clip-rule="nonzero"/></clipPath><clipPath id="2a36733d9f"><path d="M 128.242188 104.101562 L 175.863281 104.101562 L 175.863281 199.851562 L 128.242188 199.851562 Z M 128.242188 104.101562 " clip-rule="nonzero"/></clipPath></defs><g clip-path="url(#03e256e88a)"><rect x="-28.8" width="345.6" fill="#ff9a24" y="-28.799999" height="345.599986" fill-opacity="1"/></g><g clip-path="url(#2a36733d9f)"><path fill="#ff9a24" d="M 128.242188 104.101562 L 175.863281 104.101562 L 175.863281 199.902344 L 128.242188 199.902344 Z M 128.242188 104.101562 " fill-opacity="1" fill-rule="nonzero"/></g></svg>